<?xml version="1.0" standalone="no"?>
<!DOCTYPE svg PUBLIC "-//W3C//DTD SVG 20010904//EN"
 "http://www.w3.org/TR/2001/REC-SVG-20010904/DTD/svg10.dtd">
<svg version="1.0" xmlns="http://www.w3.org/2000/svg"
 width="213.000000pt" height="190.000000pt" viewBox="0 0 213.000000 190.000000"
 preserveAspectRatio="xMidYMid meet">

<g transform="translate(0.000000,190.000000) scale(0.100000,-0.100000)"
fill="#000000" stroke="none">
<path d="M980 1838 c-63 -43 -75 -70 -78 -174 l-4 -94 -84 0 -83 0 -5 -32 c-7
-45 -36 -665 -36 -760 l0 -78 387 0 386 0 44 25 c23 14 43 31 43 36 0 13 -118
753 -125 787 -5 21 -10 22 -90 22 l-85 0 0 89 c0 99 -16 136 -79 178 -48 32
-144 32 -191 1z m178 -24 c46 -30 62 -72 62 -161 l0 -83 -145 0 -145 0 0 90
c0 86 1 91 31 125 17 19 45 39 63 45 39 11 104 4 134 -16z m-258 -299 c0 -14
-6 -34 -12 -45 -16 -24 0 -55 27 -55 27 0 43 31 27 55 -6 11 -12 31 -12 45 l0
25 145 0 145 0 0 -25 c0 -13 -5 -35 -11 -49 -15 -31 3 -59 35 -54 24 3 35 43
17 61 -6 6 -11 24 -11 39 l0 28 75 0 75 0 0 -42 c0 -24 9 -205 20 -402 11
-197 17 -363 14 -367 -7 -11 -711 -12 -718 -1 -5 8 33 778 40 800 2 8 26 12
74 12 68 0 70 -1 70 -25z m585 -516 c19 -118 35 -219 35 -225 0 -6 -11 -16
-25 -22 -32 -15 -32 -12 -40 183 -3 83 -8 182 -12 220 -10 124 6 64 42 -156z"/>
<path d="M960 1160 c0 -19 83 -70 114 -70 35 0 94 32 103 55 10 27 -3 27 -42
0 -47 -31 -73 -32 -119 0 -39 27 -56 31 -56 15z"/>
<path d="M249 793 c-47 -29 -71 -90 -53 -137 9 -25 21 -19 27 13 8 40 62 99
99 109 16 4 30 12 31 17 3 17 -76 16 -104 -2z"/>
<path d="M1887 804 c-10 -10 2 -24 20 -24 29 0 85 -52 105 -98 15 -33 22 -41
29 -31 25 40 -2 113 -51 143 -28 16 -91 22 -103 10z"/>
<path d="M1847 656 c-264 -213 -582 -310 -878 -267 -206 31 -424 130 -601 274
-62 50 -88 59 -88 28 0 -37 236 -201 377 -260 399 -170 826 -111 1187 163 105
79 119 95 105 112 -6 8 -14 14 -18 13 -3 0 -41 -29 -84 -63z"/>
<path d="M313 273 c-61 -11 -86 -121 -38 -168 26 -27 80 -34 116 -15 34 19 22
32 -23 25 -57 -8 -80 9 -80 58 0 54 17 70 69 64 24 -2 45 -1 48 3 12 19 -50
40 -92 33z"/>
<path d="M545 273 c-31 -8 -62 -41 -69 -74 -7 -37 15 -93 42 -108 27 -15 83
-13 103 2 60 46 47 152 -22 176 -18 6 -32 10 -33 10 -1 -1 -10 -3 -21 -6z m63
-45 c15 -15 16 -72 2 -99 -24 -44 -100 -10 -100 46 0 51 65 86 98 53z"/>
<path d="M1800 273 c-39 -12 -60 -28 -70 -54 -17 -40 -5 -94 27 -119 38 -30
123 -26 123 6 0 11 -9 13 -40 8 -51 -8 -80 14 -80 62 0 48 24 68 77 60 33 -4
43 -2 43 9 0 7 -3 16 -7 18 -16 9 -59 15 -73 10z"/>
<path d="M50 175 l0 -95 66 0 c48 0 65 3 62 13 -3 6 -25 13 -51 15 -42 3 -47
6 -47 27 0 21 5 24 42 27 59 4 63 28 4 28 -42 0 -46 2 -46 24 0 22 5 25 47 28
26 2 48 9 51 16 3 9 -14 12 -62 12 l-66 0 0 -95z"/>
<path d="M740 175 c0 -78 3 -95 15 -95 12 0 15 14 15 63 l1 62 25 -47 c13 -27
30 -48 37 -48 6 0 23 21 37 47 l25 48 3 -63 c2 -46 7 -62 17 -62 12 0 15 19
15 95 0 116 -12 123 -63 33 l-35 -62 -31 62 c-46 92 -61 84 -61 -33z"/>
<path d="M1020 175 c0 -78 3 -95 15 -95 12 0 15 14 15 63 l1 62 25 -47 c13
-27 30 -48 37 -48 6 0 23 21 37 47 l25 48 3 -63 c2 -46 7 -62 17 -62 12 0 15
19 15 95 0 116 -12 123 -63 33 l-35 -62 -31 62 c-46 92 -61 84 -61 -33z"/>
<path d="M1294 257 c-3 -8 -4 -49 -2 -93 l3 -79 63 -3 c51 -2 62 0 62 13 0 11
-11 15 -45 15 -41 0 -45 2 -45 24 0 22 5 25 42 28 59 4 63 28 4 28 -42 0 -46
2 -46 24 0 22 5 25 42 28 23 2 43 9 46 16 6 18 -117 17 -124 -1z"/>
<path d="M1500 175 c0 -78 3 -95 15 -95 10 0 15 10 15 34 0 60 45 60 73 1 9
-19 23 -35 32 -35 21 0 19 22 -5 52 -19 25 -19 26 0 43 11 10 20 28 20 40 0
37 -30 55 -93 55 l-57 0 0 -95z m110 40 c0 -18 -7 -26 -25 -31 -36 -9 -55 2
-55 31 0 23 4 25 40 25 36 0 40 -3 40 -25z"/>
<path d="M1960 175 l0 -96 63 3 c71 3 80 21 12 26 -40 3 -45 6 -45 27 0 21 5
24 42 27 59 4 63 28 4 28 -42 0 -46 2 -46 24 0 22 5 25 47 28 26 2 48 9 51 16
3 9 -14 12 -62 12 l-66 0 0 -95z"/>
</g>
</svg>
